<svg xmlns="http://www.w3.org/2000/svg" width="1200" height="360" viewBox="0 0 1200 360" role="img" aria-labelledby="title desc">
  <title id="title">BarqDB</title>
  <desc id="desc">BarqDB brand banner for local-first database tools.</desc>
  <defs>
    <linearGradient id="bg" x1="0" y1="0" x2="1" y2="1">
      <stop offset="0" stop-color="#070b14"/>
      <stop offset="0.55" stop-color="#0b1324"/>
      <stop offset="1" stop-color="#071a1f"/>
    </linearGradient>
    <linearGradient id="brand" x1="136" y1="62" x2="421" y2="478" gradientUnits="userSpaceOnUse">
      <stop offset="0" stop-color="#44f0b5"/>
      <stop offset="0.52" stop-color="#22d3ee"/>
      <stop offset="1" stop-color="#38bdf8"/>
    </linearGradient>
    <linearGradient id="gold" x1="224" y1="78" x2="352" y2="454" gradientUnits="userSpaceOnUse">
      <stop offset="0" stop-color="#ffe08a"/>
      <stop offset="1" stop-color="#f5b23b"/>
    </linearGradient>
    <linearGradient id="panel" x1="0" y1="0" x2="1" y2="1">
      <stop offset="0" stop-color="#111b2e"/>
      <stop offset="1" stop-color="#0c1423"/>
    </linearGradient>
    <pattern id="grid" width="40" height="40" patternUnits="userSpaceOnUse">
      <path d="M40 0H0V40" fill="none" stroke="#ffffff" stroke-opacity="0.045" stroke-width="1"/>
    </pattern>
    <filter id="shadow" x="-30%" y="-30%" width="160%" height="160%">
      <feDropShadow dx="0" dy="16" stdDeviation="18" flood-color="#000000" flood-opacity="0.35"/>
    </filter>
  </defs>

  <rect width="1200" height="360" rx="28" fill="url(#bg)"/>
  <rect width="1200" height="360" rx="28" fill="url(#grid)"/>
  <path d="M728 42C823 23 911 74 992 64C1060 55 1113 20 1200 38V360H728Z" fill="#0f2d33" opacity="0.35"/>
  <path d="M720 286C807 238 889 286 967 252C1047 217 1082 157 1200 184" fill="none" stroke="#2dd4bf" stroke-opacity="0.16" stroke-width="2"/>
  <path d="M740 318C829 266 910 314 995 278C1075 244 1101 192 1200 216" fill="none" stroke="#f5b23b" stroke-opacity="0.14" stroke-width="2"/>

  <g transform="translate(72 72)" filter="url(#shadow)">
    <rect width="136" height="136" rx="34" fill="url(#panel)" stroke="#23314a"/>
    <g transform="translate(13 8) scale(0.235)">
      <path fill="url(#brand)" fill-rule="evenodd" clip-rule="evenodd" d="M136 120C136 88 162 62 194 62H284C358 62 407 106 407 171C407 209 389 240 359 259C398 279 421 314 421 360C421 431 369 478 290 478H194C162 478 136 452 136 420V120ZM222 132V228H285C320 228 343 209 343 180C343 151 320 132 285 132H222ZM222 302V407H294C333 407 357 386 357 354C357 323 333 302 294 302H222Z"/>
      <path d="M352 78L278 244H342L224 454L260 294H205L286 78H352Z" fill="url(#gold)" stroke="#07101d" stroke-width="10" stroke-linejoin="round"/>
    </g>
  </g>

  <text x="236" y="132" fill="#f8fafc" font-family="Inter, ui-sans-serif, system-ui, -apple-system, BlinkMacSystemFont, Segoe UI, sans-serif" font-size="76" font-weight="850">BarqDB</text>
  <text x="240" y="178" fill="#a9b8cc" font-family="Inter, ui-sans-serif, system-ui, -apple-system, BlinkMacSystemFont, Segoe UI, sans-serif" font-size="26" font-weight="500">Local-first data for apps that work offline.</text>

  <g transform="translate(240 226)" font-family="Inter, ui-sans-serif, system-ui, -apple-system, BlinkMacSystemFont, Segoe UI, sans-serif" font-size="18" font-weight="700">
    <rect width="92" height="40" rx="20" fill="#102033" stroke="#243750"/>
    <text x="32" y="26" fill="#e5eef9">JS</text>
    <rect x="108" width="116" height="40" rx="20" fill="#102033" stroke="#243750"/>
    <text x="138" y="26" fill="#e5eef9">Kotlin</text>
    <rect x="240" width="96" height="40" rx="20" fill="#102033" stroke="#243750"/>
    <text x="272" y="26" fill="#e5eef9">C++</text>
    <rect x="352" width="112" height="40" rx="20" fill="#0e2a28" stroke="#1fbf92"/>
    <text x="386" y="26" fill="#eafff7">Core</text>
    <rect x="480" width="112" height="40" rx="20" fill="#2a2411" stroke="#e0a932"/>
    <text x="514" y="26" fill="#fff7db">Sync</text>
  </g>

  <g transform="translate(842 84)" filter="url(#shadow)">
    <path d="M38 36C38 16 86 0 145 0C204 0 252 16 252 36V162C252 182 204 198 145 198C86 198 38 182 38 162Z" fill="#0d1728" stroke="#29405d" stroke-width="2"/>
    <ellipse cx="145" cy="36" rx="107" ry="36" fill="#15243a" stroke="#2dd4bf" stroke-opacity="0.85" stroke-width="2"/>
    <path d="M38 78C38 98 86 114 145 114C204 114 252 98 252 78" fill="none" stroke="#29405d" stroke-width="2"/>
    <path d="M38 120C38 140 86 156 145 156C204 156 252 140 252 120" fill="none" stroke="#29405d" stroke-width="2"/>
    <path d="M190 18L154 96H204L120 178L146 118H98L139 18Z" fill="url(#gold)" stroke="#07101d" stroke-width="6" stroke-linejoin="round"/>
    <circle cx="71" cy="36" r="5" fill="#44f0b5"/>
    <circle cx="93" cy="36" r="5" fill="#22d3ee"/>
    <circle cx="115" cy="36" r="5" fill="#38bdf8"/>
  </g>
</svg>
