<svg xmlns="http://www.w3.org/2000/svg" width="512" height="512" viewBox="0 0 512 512" role="img" aria-labelledby="title desc">
  <title id="title">BarqDB mark</title>
  <desc id="desc">Modern BarqDB monogram mark.</desc>
  <defs>
    <linearGradient id="bg" x1="0" y1="0" x2="1" y2="1">
      <stop offset="0" stop-color="#070b14"/>
      <stop offset="0.58" stop-color="#0b1324"/>
      <stop offset="1" stop-color="#071a1f"/>
    </linearGradient>
    <linearGradient id="brand" x1="136" y1="62" x2="421" y2="478" gradientUnits="userSpaceOnUse">
      <stop offset="0" stop-color="#44f0b5"/>
      <stop offset="0.52" stop-color="#22d3ee"/>
      <stop offset="1" stop-color="#38bdf8"/>
    </linearGradient>
    <linearGradient id="gold" x1="224" y1="78" x2="352" y2="454" gradientUnits="userSpaceOnUse">
      <stop offset="0" stop-color="#ffe08a"/>
      <stop offset="1" stop-color="#f5b23b"/>
    </linearGradient>
    <pattern id="grid" width="42" height="42" patternUnits="userSpaceOnUse">
      <path d="M42 0H0V42" fill="none" stroke="#ffffff" stroke-opacity="0.045" stroke-width="1"/>
    </pattern>
    <filter id="shadow" x="-30%" y="-30%" width="160%" height="160%">
      <feDropShadow dx="0" dy="18" stdDeviation="20" flood-color="#000000" flood-opacity="0.42"/>
    </filter>
  </defs>

  <rect width="512" height="512" rx="108" fill="url(#bg)"/>
  <rect width="512" height="512" rx="108" fill="url(#grid)"/>
  <path d="M0 386C74 330 151 387 232 354C323 318 346 231 512 238V512H0Z" fill="#0f2d33" opacity="0.42"/>
  <rect x="1.5" y="1.5" width="509" height="509" rx="106.5" fill="none" stroke="#22304a" stroke-width="3"/>

  <g filter="url(#shadow)">
    <path fill="url(#brand)" fill-rule="evenodd" clip-rule="evenodd" d="M136 120C136 88 162 62 194 62H284C358 62 407 106 407 171C407 209 389 240 359 259C398 279 421 314 421 360C421 431 369 478 290 478H194C162 478 136 452 136 420V120ZM222 132V228H285C320 228 343 209 343 180C343 151 320 132 285 132H222ZM222 302V407H294C333 407 357 386 357 354C357 323 333 302 294 302H222Z"/>
    <path d="M352 78L278 244H342L224 454L260 294H205L286 78H352Z" fill="url(#gold)" stroke="#07101d" stroke-width="10" stroke-linejoin="round"/>
  </g>
</svg>
